<svg width="60" height="60" viewBox="0 0 60 60" fill="none" xmlns="http://www.w3.org/2000/svg">
<path d="M30.4416 60.0005C46.7665 60.0005 60.0005 46.7665 60.0005 30.4416C60.0005 14.1167 46.7665 0.882812 30.4416 0.882812C14.1167 0.882812 0.882812 14.1167 0.882812 30.4416C0.882812 46.7665 14.1167 60.0005 30.4416 60.0005Z" fill="#091156"/>
<path d="M36.875 18.375H23.125C19 18.375 16.25 20.4375 16.25 25.25V34.875C16.25 39.6875 19 41.75 23.125 41.75H28.0338C28.845 41.75 29.505 41.035 29.395 40.2238C29.2575 39.2475 29.285 38.23 29.4913 37.185C30.22 33.61 33.1625 30.7638 36.765 30.1725C38.5663 29.8838 40.285 30.1313 41.7975 30.7913C42.7188 31.19 43.75 30.5575 43.75 29.5538V25.25C43.75 20.4375 41 18.375 36.875 18.375ZM37.5213 26.0613L33.2175 29.4988C32.31 30.2275 31.155 30.585 30 30.585C28.845 30.585 27.6763 30.2275 26.7825 29.4988L22.4788 26.0613C22.0388 25.7038 21.97 25.0575 22.3138 24.6038C22.6713 24.1638 23.3175 24.0813 23.7575 24.4388L28.0613 27.8763C29.1063 28.715 30.88 28.715 31.925 27.8763L36.2288 24.4388C36.6688 24.0813 37.3288 24.15 37.6725 24.6038C38.03 25.0575 37.9613 25.7038 37.5213 26.0613Z" fill="white"/>
<path d="M38.25 32.125C34.455 32.125 31.375 35.1913 31.375 39C31.375 42.795 34.455 45.875 38.25 45.875C42.0588 45.875 45.125 42.795 45.125 39C45.125 35.1913 42.0588 32.125 38.25 32.125ZM41.0687 38.3812L40.56 38.8763L37.5625 41.8875C37.425 42.0113 37.1638 42.1488 36.9713 42.1763L35.6238 42.3688C35.1425 42.4375 34.7988 42.0938 34.8675 41.6125L35.06 40.265C35.0875 40.0725 35.2113 39.8113 35.3488 39.6738L38.3463 36.69L38.8413 36.1813C39.1713 35.8513 39.5425 35.6313 39.9275 35.6313C40.2575 35.6313 40.6288 35.7825 41.0413 36.1813C41.9625 37.075 41.6737 37.7762 41.0687 38.3812Z" fill="white"/>
</svg>
