<svg width="33" height="33" viewBox="0 0 33 33" fill="none" xmlns="http://www.w3.org/2000/svg">
<path d="M3.808 15.9707C3.80717 18.2946 4.41511 20.5633 5.57108 22.5634L3.69727 29.3968L10.6986 27.5632C12.6276 28.6131 14.7995 29.1673 17.0099 29.1681H17.0156C24.2945 29.1681 30.2193 23.252 30.2225 15.9811C30.2238 12.4574 28.8513 9.14459 26.3576 6.65175C23.8643 4.15927 20.5484 2.78586 17.015 2.78421C9.7356 2.78421 3.81083 8.69943 3.80767 15.9708L3.808 15.9707ZM17.0154 29.168H17.0155H17.0154C17.0152 29.168 17.0151 29.168 17.0154 29.168Z" fill="#28C76F"/>
<path fill-rule="evenodd" clip-rule="evenodd" d="M13.5988 10.2561C13.3426 9.68754 13.0732 9.67616 12.8296 9.66616C12.6302 9.65769 12.4022 9.65824 12.1745 9.65824C11.9464 9.65824 11.5761 9.74369 11.263 10.0854C10.9495 10.427 10.0664 11.253 10.0664 12.9327C10.0664 14.6126 11.2915 16.2358 11.4622 16.4639C11.6332 16.6915 13.8271 20.2489 17.3014 21.6173C20.1891 22.7546 20.7767 22.5284 21.4034 22.4714C22.0302 22.4146 23.426 21.6458 23.7107 20.8485C23.9956 20.0514 23.9956 19.368 23.9102 19.2253C23.8248 19.083 23.5968 18.9976 23.255 18.827C22.913 18.6562 21.2324 17.8301 20.9192 17.7162C20.6057 17.6024 20.3778 17.5456 20.1498 17.8874C19.9219 18.2288 19.2673 18.9976 19.0678 19.2253C18.8684 19.4535 18.6689 19.482 18.3271 19.3112C17.9851 19.1399 16.8841 18.7797 15.5781 17.6167C14.5618 16.7117 13.8758 15.5942 13.6763 15.2523C13.477 14.9109 13.655 14.726 13.8264 14.5557C13.98 14.4028 14.1684 14.1571 14.3394 13.9578C14.5099 13.7584 14.5668 13.6162 14.6808 13.3884C14.7948 13.1605 14.7378 12.9611 14.6524 12.7904C14.5668 12.6196 13.9025 10.9312 13.5985 10.256" fill="white"/>
</svg>
