<svg width="60" height="60" viewBox="0 0 60 60" fill="none" xmlns="http://www.w3.org/2000/svg">
<path d="M1.40109 28.9734C1.39928 34.05 2.72738 39.0064 5.25272 43.3758L1.15918 58.304L16.4544 54.2983C20.6685 56.5919 25.4132 57.8028 30.242 57.8043H30.2544C46.1561 57.8043 59.0994 44.8802 59.1063 28.996C59.1093 21.2982 56.1108 14.061 50.6631 8.61508C45.2162 3.16998 37.9722 0.16963 30.2531 0.166016C14.3506 0.166016 1.40726 13.0885 1.40037 28.9735L1.40109 28.9734ZM30.254 57.8042H30.2543H30.254C30.2537 57.8042 30.2534 57.8042 30.254 57.8042Z" fill="#28C76F"/>
<path fill-rule="evenodd" clip-rule="evenodd" d="M22.7888 16.4871C22.2293 15.2449 21.6406 15.2201 21.1084 15.1982C20.6729 15.1797 20.1748 15.1809 19.6773 15.1809C19.1792 15.1809 18.3701 15.3676 17.686 16.114C17.0013 16.8604 15.072 18.6648 15.072 22.3344C15.072 26.0043 17.7484 29.5504 18.1212 30.0485C18.4948 30.5457 23.2876 38.3173 30.8776 41.3068C37.1861 43.7914 38.4698 43.2973 39.839 43.1727C41.2082 43.0486 44.2574 41.369 44.8795 39.6273C45.5019 37.8858 45.5019 36.393 45.3153 36.0812C45.1287 35.7704 44.6306 35.5837 43.8838 35.211C43.1368 34.8379 39.4654 33.0333 38.781 32.7844C38.0963 32.5358 37.5984 32.4116 37.1003 33.1583C36.6025 33.9042 35.1723 35.5837 34.7364 36.0812C34.3009 36.5797 33.8651 36.6419 33.1183 36.2688C32.3713 35.8946 29.9661 35.1077 27.1129 32.567C24.8928 30.59 23.3941 28.1486 22.9582 27.4018C22.5227 26.6559 22.9117 26.2519 23.2862 25.88C23.6217 25.5458 24.0332 25.0092 24.4067 24.5738C24.7793 24.1383 24.9036 23.8274 25.1526 23.3299C25.4018 22.8321 25.2772 22.3964 25.0906 22.0234C24.9036 21.6503 23.4524 17.9618 22.7884 16.4869" fill="white"/>
</svg>
