<svg width="25" height="24" viewBox="0 0 25 24" fill="none" xmlns="http://www.w3.org/2000/svg">
<path d="M23.047 6.81568C22.7984 5.89245 22.0705 5.16452 21.1472 4.91596C19.4606 4.45435 12.7139 4.45435 12.7139 4.45435C12.7139 4.45435 5.96726 4.45435 4.28059 4.89821C3.37512 5.14677 2.62943 5.89245 2.38087 6.81568C1.93701 8.50234 1.93701 12 1.93701 12C1.93701 12 1.93701 15.5153 2.38087 17.1842C2.62943 18.1075 3.35736 18.8354 4.28059 19.084C5.98501 19.5456 12.7139 19.5456 12.7139 19.5456C12.7139 19.5456 19.4606 19.5456 21.1472 19.1017C22.0705 18.8531 22.7984 18.1252 23.047 17.202C23.4908 15.5153 23.4908 12.0177 23.4908 12.0177C23.4908 12.0177 23.5086 8.50234 23.047 6.81568Z" fill="#FF0000"/>
<path d="M10.5659 15.2314L16.1763 12.0001L10.5659 8.7688V15.2314Z" fill="white"/>
</svg>
