<svg width="30" height="21" viewBox="0 0 30 21" fill="none" xmlns="http://www.w3.org/2000/svg">
<path d="M28.7775 3.58771C28.4461 2.35674 27.4755 1.38617 26.2445 1.05476C23.9956 0.43927 15.0001 0.43927 15.0001 0.43927C15.0001 0.43927 6.00452 0.43927 3.75563 1.03108C2.54833 1.3625 1.55409 2.35674 1.22267 3.58771C0.630859 5.8366 0.630859 10.5001 0.630859 10.5001C0.630859 10.5001 0.630859 15.1872 1.22267 17.4125C1.55409 18.6434 2.52466 19.614 3.75563 19.9454C6.02819 20.5609 15.0001 20.5609 15.0001 20.5609C15.0001 20.5609 23.9956 20.5609 26.2445 19.9691C27.4755 19.6377 28.4461 18.6671 28.7775 17.4361C29.3693 15.1872 29.3693 10.5238 29.3693 10.5238C29.3693 10.5238 29.393 5.8366 28.7775 3.58771Z" fill="#FF0000"/>
<path d="M12.1357 14.8085L19.6163 10.5001L12.1357 6.19171V14.8085Z" fill="white"/>
</svg>
